<svg xmlns="http://www.w3.org/2000/svg" viewBox="0 0 750 500"><g id="freepik--washing-machine-2--inject-2"><rect x="270.92" y="122.15" width="164.82" height="298.68" style="fill:#fff;stroke:#263238;stroke-miterlimit:10"></rect><rect x="328.6" y="122.15" width="49.47" height="298.68" style="fill:#032F4B;stroke:#263238;stroke-miterlimit:10"></rect><rect x="270.92" y="145.36" width="164.82" height="199.2" style="fill:none;stroke:#263238;stroke-miterlimit:10"></rect><rect x="270.92" y="122.15" width="164.82" height="199.2" style="fill:none;stroke:#263238;stroke-miterlimit:10"></rect><rect x="406.32" y="194.65" width="29.42" height="16.2" style="fill:#fff;stroke:#263238;stroke-miterlimit:10"></rect><rect x="406.32" y="265.43" width="29.42" height="16.2" style="fill:#fff;stroke:#263238;stroke-miterlimit:10"></rect><circle cx="353.33" cy="238.95" r="73.9" style="fill:#fff;stroke:#263238;stroke-miterlimit:10"></circle><circle cx="353.33" cy="238.95" r="71.47" transform="translate(-65.48 319.83) rotate(-45)" style="fill:#032F4B;stroke:#263238;stroke-miterlimit:10"></circle><path d="M412.74,239a59.45,59.45,0,1,1-17.91-42.49h0A59.22,59.22,0,0,1,412.74,239Z" style="fill:#263238;stroke:#263238;stroke-miterlimit:10"></path><path d="M412.74,239a59.42,59.42,0,0,1-91.46,50l0-.2c-5.13-2.56-13.69-14.1-18.39-23.08s2.14-36.35,12-46.18,10.69-14.54,16.67-12,.87,15.83.87,15.83A125,125,0,0,0,341,209.68c3-6,12.39-8.55,18.81-12.4s13.68-6.41,18.39-6.41c4,0,13.71,4.26,16.66,5.59h0A59.22,59.22,0,0,1,412.74,239Z" style="fill:#fff;stroke:#263238;stroke-miterlimit:10"></path><path d="M327.26,239.58c5-15.6,3.44-9.8,3.44-9.8" style="fill:none;stroke:#263238;stroke-miterlimit:10"></path><path d="M316.17,252s7.26-39.33,9-28.64-11.54,39.76-9.83,44.46,5-6.37,10.75-24.49" style="fill:none;stroke:#263238;stroke-miterlimit:10"></path><path d="M406,260.11a38.29,38.29,0,0,0,2.12-9" style="fill:none;stroke:#263238;stroke-miterlimit:10"></path><path d="M359.78,288.36c13.56,9.39,35.32-5.26,44.35-23.93" style="fill:none;stroke:#263238;stroke-miterlimit:10"></path><path d="M370.89,248.09a38.11,38.11,0,0,0-13.68,4.78c-13.74,8.64-14.14,21.6-1.2,32.6" style="fill:none;stroke:#263238;stroke-miterlimit:10"></path><path d="M340.76,269.57c3.19-7.59,9.35-20.7,16.88-29.1,11.12-12.4,38.91-18,38.48-3.85-.26,8.56-9,9.25-19.2,10.57" style="fill:none;stroke:#263238;stroke-miterlimit:10"></path><path d="M338.4,275.53s.42-1.16,1.19-3.11" style="fill:none;stroke:#263238;stroke-miterlimit:10"></path><path d="M329.29,262c-5.73,10.07-10.37,15.2-17,15.2" style="fill:none;stroke:#263238;stroke-miterlimit:10"></path><path d="M347.38,227.25q-1.83,3.3-3.85,7.23c-4.59,8.92-8.29,16.47-11.55,22.63" style="fill:none;stroke:#263238;stroke-miterlimit:10"></path><path d="M397.57,219.16c-3-4.51-10.32-13.64-20.26-14.61-11.42-1.1-17.45,1-28.2,19.62" style="fill:none;stroke:#263238;stroke-miterlimit:10"></path><path d="M399.12,221.66s-.3-.56-.88-1.47" style="fill:none;stroke:#263238;stroke-miterlimit:10"></path><path d="M390.56,256.72s-3.56,1.85-8,4.36c-6.21,3.51-14.12,8.29-16.37,11-3.85,4.7,3.85,9.41,7.27,5.56s9.84-11.12,9.84-11.12" style="fill:none;stroke:#263238;stroke-miterlimit:10"></path><path d="M295.81,261.38a7.51,7.51,0,0,1-7.26-5.62,67.32,67.32,0,0,1,1.19-37.68A7.5,7.5,0,0,1,304,222.76a52.1,52.1,0,0,0-.92,29.24,7.51,7.51,0,0,1-5.39,9.14A7.63,7.63,0,0,1,295.81,261.38Z" style="fill:#bdbdbd;stroke:#263238;stroke-miterlimit:10"></path><circle cx="368.17" cy="152.47" r="4.52" style="fill:#263238;stroke:#263238;stroke-miterlimit:10"></circle><circle cx="422.43" cy="133.88" r="4.52" style="fill:#032F4B;stroke:#263238;stroke-miterlimit:10"></circle><rect x="333.84" y="148.51" width="26.15" height="8.29" style="fill:#fff;stroke:#263238;stroke-miterlimit:10"></rect><line x1="411.03" y1="122.32" x2="411.03" y2="145.53" style="fill:none;stroke:#263238;stroke-miterlimit:10"></line></g><g id="freepik--ironing-board--inject-2"><rect x="508.62" y="158.76" width="3.75" height="40.97" transform="translate(-26.43 112.54) rotate(-12.26)" style="fill:#fff;stroke:#263238;stroke-miterlimit:10"></rect><rect x="501.89" y="150.15" width="6.56" height="9.18" transform="translate(-21.34 110.85) rotate(-12.27)" style="fill:#263238;stroke:#263238;stroke-miterlimit:10"></rect><rect x="528.58" y="177.37" width="40.97" height="3.75" transform="translate(257.27 677.7) rotate(-77.74)" style="fill:#fff;stroke:#263238;stroke-miterlimit:10"></rect><rect x="549.8" y="151.46" width="9.18" height="6.56" transform="translate(285.41 663.61) rotate(-77.73)" style="fill:#263238;stroke:#263238;stroke-miterlimit:10"></rect><rect x="490.01" y="389.26" width="40.97" height="3.75" transform="translate(19.84 806.9) rotate(-77.74)" style="fill:#fff;stroke:#263238;stroke-miterlimit:10"></rect><rect x="500.58" y="412.36" width="9.18" height="6.56" transform="translate(-8.3 820.98) rotate(-77.73)" style="fill:#263238;stroke:#263238;stroke-miterlimit:10"></rect><rect x="547.19" y="370.66" width="3.75" height="40.97" transform="translate(-70.56 125.56) rotate(-12.26)" style="fill:#fff;stroke:#263238;stroke-miterlimit:10"></rect><rect x="551.11" y="411.05" width="6.56" height="9.18" transform="translate(-75.64 127.26) rotate(-12.27)" style="fill:#263238;stroke:#263238;stroke-miterlimit:10"></rect><path d="M506.64,365.66H553.1a0,0,0,0,1,0,0v33a7.77,7.77,0,0,1-7.77,7.77H514.42a7.77,7.77,0,0,1-7.77-7.77v-33A0,0,0,0,1,506.64,365.66Z" style="fill:none;stroke:#263238;stroke-miterlimit:10;stroke-width:2px"></path><line x1="515.79" y1="365.6" x2="515.79" y2="406.02" style="fill:none;stroke:#263238;stroke-miterlimit:10;stroke-width:2px"></line><line x1="525.27" y1="365.6" x2="525.27" y2="406.02" style="fill:none;stroke:#263238;stroke-miterlimit:10;stroke-width:2px"></line><line x1="534.75" y1="365.6" x2="534.75" y2="406.02" style="fill:none;stroke:#263238;stroke-miterlimit:10;stroke-width:2px"></line><line x1="544.22" y1="365.6" x2="544.22" y2="406.02" style="fill:none;stroke:#263238;stroke-miterlimit:10;stroke-width:2px"></line><path d="M551.36,379.1H508.17a10.36,10.36,0,0,1-10.37-10.36V215.26a81.41,81.41,0,0,1,15.77-48.14l11.17-15.25a5.47,5.47,0,0,1,8.75-.09l11.43,14.91a81.4,81.4,0,0,1,16.8,49.54V368.74A10.36,10.36,0,0,1,551.36,379.1Z" style="fill:#032F4B;stroke:#263238;stroke-miterlimit:10"></path></g><g id="freepik--Clothes--inject-2"><path d="M717.76,420.83V182.7a9.4,9.4,0,0,0-9.4-9.4H554.67a9.4,9.4,0,0,0-9.4,9.4V420.45" style="fill:none;stroke:#263238;stroke-linejoin:round;stroke-width:4px"></path><path d="M641.71,218.16l4.53-3.13A42.83,42.83,0,0,0,661,196.54l3.77-8.81h6l3.78,8.81A42.83,42.83,0,0,0,689.31,215l4.53,3.13a10.18,10.18,0,0,1,4.09,8.37H637.62A10.15,10.15,0,0,1,641.71,218.16Zm24.38,4.67H692c0-2.78-4.43-5.36-6.19-6.77l-3.14-2.54a34.19,34.19,0,0,1-10.21-15l-2.62-7.14H665.7l-2.62,7.14a34.2,34.2,0,0,1-10.22,15l-3.14,2.54c-1.75,1.41-6.1,4-6.1,6.77Z" style="fill:#fff;stroke:#263238;stroke-linecap:round;stroke-linejoin:round"></path><path d="M667.81,187.58v-6.47s-3.7-2.77-3.7-6.78,3.08-5.54,6.47-4.31" style="fill:none;stroke:#263238;stroke-linecap:round;stroke-linejoin:round"></path><path d="M685,208.4s-6.87,7.92-15.51,8.06c-9.17.14-19.94-7.88-19.94-7.88a45.31,45.31,0,0,1-8,5.51c-4.8,2.62-8,6.45-10.47,13.09-2.81,7.4-9,27.53-9,27.53l17.84.87-2.45,40.47h59.34l-4-41.23h17.32s-5.74-27.21-8.36-32.44S685,208.4,685,208.4Z" style="fill:#fff;stroke:#263238;stroke-linecap:round;stroke-linejoin:round"></path><line x1="692.85" y1="254.82" x2="691.94" y2="233.2" style="fill:none;stroke:#263238;stroke-linecap:round;stroke-linejoin:round"></line><line x1="639.98" y1="255.58" x2="641.38" y2="234.58" style="fill:none;stroke:#263238;stroke-linecap:round;stroke-linejoin:round"></line><path d="M710.51,221.3c-2.44-3-12.9-11.58-21.62-16.05a67.22,67.22,0,0,1-13.59-9l-8.37-1.12-8.37,1.12a67.14,67.14,0,0,1-13.6,9c-8.71,4.47-19.17,13.06-21.61,16.05l-2.44,3V356.06h92V224.28Z" style="fill:none;stroke:#8a8a8a;stroke-linecap:round;stroke-linejoin:round"></path><path d="M704.8,221s-9.95,58-28.74,85.4" style="fill:none;stroke:#8a8a8a;stroke-linecap:round;stroke-linejoin:round"></path><path d="M680.21,280.41s-9.4,24.88-19.35,39.8" style="fill:none;stroke:#8a8a8a;stroke-linecap:round;stroke-linejoin:round"></path><path d="M666.11,205s-7.88,14.61-16.31,22.11" style="fill:none;stroke:#8a8a8a;stroke-linecap:round;stroke-linejoin:round"></path><path d="M608.32,218.16l4.53-3.13a42.74,42.74,0,0,0,14.75-18.49l3.78-8.81h6l3.78,8.81A42.76,42.76,0,0,0,655.92,215l4.53,3.13a10.18,10.18,0,0,1,4.09,8.37H604.23A10.15,10.15,0,0,1,608.32,218.16Zm24.38,4.67h25.92c0-2.78-4.44-5.36-6.19-6.77l-3.14-2.54a34.28,34.28,0,0,1-10.22-15l-2.61-7.14h-4.15l-2.62,7.14a34.2,34.2,0,0,1-10.22,15l-3.14,2.54c-1.75,1.41-6.1,4-6.1,6.77Z" style="fill:#fff;stroke:#263238;stroke-linecap:round;stroke-linejoin:round"></path><path d="M634.42,187.58v-6.47s-3.7-2.77-3.7-6.78,3.08-5.54,6.47-4.31" style="fill:none;stroke:#263238;stroke-linecap:round;stroke-linejoin:round"></path><path d="M651.64,208.4s-6.87,7.92-15.5,8.06c-9.17.14-19.94-7.88-19.94-7.88a45.31,45.31,0,0,1-8,5.51c-4.8,2.62-8,6.45-10.47,13.09-2.81,7.4-9,27.53-9,27.53l17.84.87-2.45,40.47h59.34l-4-41.23h17.32s-5.74-27.21-8.36-32.44S651.64,208.4,651.64,208.4Z" style="fill:#fff;stroke:#263238;stroke-linecap:round;stroke-linejoin:round"></path><line x1="659.46" y1="254.82" x2="658.55" y2="233.2" style="fill:none;stroke:#263238;stroke-linecap:round;stroke-linejoin:round"></line><line x1="606.59" y1="255.58" x2="607.98" y2="234.58" style="fill:none;stroke:#263238;stroke-linecap:round;stroke-linejoin:round"></line><path d="M677.12,221.3c-2.44-3-12.9-11.58-21.62-16.05a67.22,67.22,0,0,1-13.59-9l-8.37-1.12-8.37,1.12a67.14,67.14,0,0,1-13.6,9c-8.71,4.47-19.17,13.06-21.61,16.05l-2.44,3V356.06h92V224.28Z" style="fill:none;stroke:#8a8a8a;stroke-linecap:round;stroke-linejoin:round"></path><path d="M671.41,221s-9.95,58-28.74,85.4" style="fill:none;stroke:#8a8a8a;stroke-linecap:round;stroke-linejoin:round"></path><path d="M646.81,280.41s-9.39,24.88-19.34,39.8" style="fill:none;stroke:#8a8a8a;stroke-linecap:round;stroke-linejoin:round"></path><path d="M632.72,205s-7.88,14.61-16.31,22.11" style="fill:none;stroke:#8a8a8a;stroke-linecap:round;stroke-linejoin:round"></path><path d="M575.37,218.16,579.9,215a42.83,42.83,0,0,0,14.76-18.49l3.78-8.81h6l3.77,8.81A42.83,42.83,0,0,0,623,215l4.53,3.13a10.15,10.15,0,0,1,4.09,8.37H571.28A10.18,10.18,0,0,1,575.37,218.16Zm24.38,4.67h25.92c0-2.78-4.43-5.36-6.19-6.77l-3.13-2.54a34.2,34.2,0,0,1-10.22-15l-2.62-7.14h-4.15l-2.62,7.14a34.19,34.19,0,0,1-10.21,15l-3.14,2.54c-1.76,1.41-6.1,4-6.1,6.77Z" style="fill:#fff;stroke:#263238;stroke-linecap:round;stroke-linejoin:round"></path><path d="M601.47,187.58v-6.47s-3.7-2.77-3.7-6.78,3.08-5.54,6.47-4.31" style="fill:none;stroke:#263238;stroke-linecap:round;stroke-linejoin:round"></path><path d="M618.7,208.4s-6.87,7.92-15.51,8.06c-9.16.14-19.94-7.88-19.94-7.88a45.31,45.31,0,0,1-8,5.51c-4.79,2.62-7.95,6.45-10.47,13.09-2.8,7.4-9,27.53-9,27.53l17.84.87-2.44,40.47h59.33l-4-41.23h17.32s-5.74-27.21-8.35-32.44S618.7,208.4,618.7,208.4Z" style="fill:#fff;stroke:#263238;stroke-linecap:round;stroke-linejoin:round"></path><line x1="626.51" y1="254.82" x2="625.61" y2="233.2" style="fill:none;stroke:#263238;stroke-linecap:round;stroke-linejoin:round"></line><line x1="573.64" y1="255.58" x2="575.04" y2="234.58" style="fill:none;stroke:#263238;stroke-linecap:round;stroke-linejoin:round"></line><path d="M644.17,221.3c-2.44-3-12.9-11.58-21.61-16.05a67.14,67.14,0,0,1-13.6-9l-8.37-1.12-8.37,1.12a67.22,67.22,0,0,1-13.59,9c-8.72,4.47-19.18,13.06-21.62,16.05l-2.44,3V356.06h92V224.28Z" style="fill:none;stroke:#8a8a8a;stroke-linecap:round;stroke-linejoin:round"></path><path d="M638.47,221s-10,58-28.75,85.4" style="fill:none;stroke:#8a8a8a;stroke-linecap:round;stroke-linejoin:round"></path><path d="M613.87,280.41s-9.4,24.88-19.35,39.8" style="fill:none;stroke:#8a8a8a;stroke-linecap:round;stroke-linejoin:round"></path><path d="M599.77,205s-7.87,14.61-16.3,22.11" style="fill:none;stroke:#8a8a8a;stroke-linecap:round;stroke-linejoin:round"></path></g><g id="freepik--Wheelbarrow--inject-2"><rect x="500.85" y="286.01" width="4.98" height="117.9" style="fill:#c2c2c2;stroke:#263238;stroke-miterlimit:10"></rect><rect x="489.55" y="286.01" width="15.97" height="4.2" style="fill:#c2c2c2;stroke:#263238;stroke-miterlimit:10"></rect><rect x="497.01" y="403.15" width="12.67" height="4.31" style="fill:#c2c2c2;stroke:#263238;stroke-miterlimit:10"></rect><circle cx="503.34" cy="414.05" r="6.77" style="fill:#263238;stroke:#263238;stroke-miterlimit:10"></circle><path d="M506.24,414.05a2.9,2.9,0,1,0-2.9,2.9A2.9,2.9,0,0,0,506.24,414.05Z" style="fill:#fff;stroke:#263238;stroke-miterlimit:10"></path><path d="M664.61,254.62a2.52,2.52,0,0,0-3.75-.43l-28.29,25.68c-2.08,1.94-4.22,4-5.36,6.57-1.62,3.7-.89,7.8-.87,11.7,0,4.42,0,8.84,0,13.26v92.51h5V294.56c0-2.46-.6-5.26.85-7.21,4.2-5.68,10.59-10,15.71-14.84.42-.4,3.5-3.27,16.33-14.56a2.51,2.51,0,0,0,.4-3.33Z" style="fill:#c2c2c2;stroke:#263238;stroke-miterlimit:10"></path><path d="M628.46,306.86l-9.23-12.3s-6.84-2-13-4.36-7.08-7.54-11.32-9.9-11.32-2.83-13.68-1.89a18.3,18.3,0,0,1-6.13,1.42c-1.41,0-7.54-1.42-10.85,0s-11.79,2.83-12.73,5.66-3.3,3.77-4.25,5.19-3.3,2.35-6.13,2.83-18.86,1.88-21.69,3.77a55.18,55.18,0,0,1-7.08,4.24l-2.83,1.42-10.37,7.55-3.77,9s-.48,8-1.42,9.9-.94,8.49-.94,8.49v56.6H628.46Z" style="fill:#fff;stroke:#263238;stroke-miterlimit:10"></path><path d="M563.34,300.11c.47,4.24-7.33,8.46-8.84,9.24s-11.44-9.71-9.08-11.13,7.07-4.24,8.49-2.36,1.41,5.19,1.41,5.19" style="fill:none;stroke:#263238;stroke-miterlimit:10"></path><path d="M558.15,286.43s2,4,3.51,7.92" style="fill:none;stroke:#263238;stroke-miterlimit:10"></path><path d="M585.55,290.33l4.67,5.06a23.28,23.28,0,0,0-3.3,6.61c-1.41,4.24-1.88,3.77-2.36,7.07s0,2.83-.47,8.49-3.3,14.15-3.3,14.15l-14.15,8s-28.77,1.41-30.18,1.41a87.8,87.8,0,0,0-11.32,0c-4.25.47-12.74,5.66-12.74,5.66s2.47,14.24-1.59,13.49-3.12,4.9-3.12,4.9" style="fill:none;stroke:#263238;stroke-miterlimit:10"></path><line x1="578.9" y1="283.13" x2="583.72" y2="288.35" style="fill:none;stroke:#263238;stroke-miterlimit:10"></line><path d="M610.5,297.28s-9.68,12.84-11.56,12.84-8.24,3.19-10.13,6.5a84.27,84.27,0,0,0-4.72,9.43,45.8,45.8,0,0,1-3.3,5.66" style="fill:none;stroke:#263238;stroke-miterlimit:10"></path><path d="M540.11,333.81c5.08.33,11.29-1.62,18-3,9-1.89,17.09-6.72,17.92-13.68s4.72-12.26,2.36-16-9.9-9-11.32-9S560,290.2,560,290.2" style="fill:none;stroke:#263238;stroke-miterlimit:10"></path><path d="M514.29,316.62s15.56,13.2,21.22,16a10.1,10.1,0,0,0,1.68.66" style="fill:none;stroke:#263238;stroke-miterlimit:10"></path><path d="M546.88,367.53a138.25,138.25,0,0,1,20.23,1c22.64,2.83,50.94,1.88,46.7,7.54s-4.72,5.66-6.61,5.66" style="fill:none;stroke:#263238;stroke-miterlimit:10"></path><path d="M590,364.6a77.12,77.12,0,0,1-11.1.59c-8,0-23.58-1.41-34.9-1.41s-31.12,2.36-24,4.24c4,1.07,11.29.18,21-.29" style="fill:none;stroke:#263238;stroke-miterlimit:10"></path><path d="M610.8,337.12c1.81,5.61,3.56,12.31,2.53,14.87-1.88,4.72-13.2,10.85-18.39,11.79" style="fill:none;stroke:#263238;stroke-miterlimit:10"></path><path d="M607.67,328.41s1.16,2.88,2.45,6.67" style="fill:none;stroke:#263238;stroke-miterlimit:10"></path><path d="M565.88,385.08c12.84-.5,20.58-.55,14.91.4-17,2.82-52.35,4.71-52.35,4.71" style="fill:none;stroke:#263238;stroke-miterlimit:10"></path><path d="M494.48,388.78s39.3-2.34,65.43-3.46" style="fill:none;stroke:#263238;stroke-miterlimit:10"></path><rect x="562.8" y="246.18" width="4.98" height="126.34" transform="translate(874.63 -255.94) rotate(90)" style="fill:#c2c2c2;stroke:#263238;stroke-miterlimit:10"></rect><rect x="562.8" y="333.57" width="4.98" height="126.34" transform="translate(962.02 -168.55) rotate(90)" style="fill:#fff;stroke:#263238;stroke-miterlimit:10"></rect><path d="M662.55,257.9H649.69v-4.2h12.86a2.1,2.1,0,0,1,2.1,2.1h0A2.1,2.1,0,0,1,662.55,257.9Z" style="fill:#c2c2c2;stroke:#263238;stroke-miterlimit:10"></path><rect x="622.52" y="403.15" width="12.67" height="4.31" style="fill:#c2c2c2;stroke:#263238;stroke-miterlimit:10"></rect><circle cx="628.67" cy="414.05" r="6.77" style="fill:#263238;stroke:#263238;stroke-miterlimit:10"></circle><path d="M631.57,414.05a2.9,2.9,0,1,0-2.9,2.9A2.9,2.9,0,0,0,631.57,414.05Z" style="fill:#fff;stroke:#263238;stroke-miterlimit:10"></path><path d="M627.54,325.59v-1.87h-28.6v-13.6h-1.87v13.6H576.91v-13.6H575v13.6H554.87v-13.6H553v13.6H532.84v-13.6H531v13.6H510.81v-13.6h-1.88v13.6H491.58v1.87h17.35v15.48H491.58v1.87h17.35v15.47H491.58v1.88h17.35v15.47H491.58v1.87h17.35v18.29h1.88V377.63H531v18.29h1.88V377.63H553v18.29h1.87V377.63H575v18.29h1.88V377.63h20.16v18.29h1.87V377.63h28.6v-1.87h-28.6V360.29h28.6v-1.88h-28.6V342.94h28.6v-1.87h-28.6V325.59Zm-52.51,0v15.48H554.87V325.59Zm-20.16,17.35H575v15.47H554.87ZM553,358.41H532.84V342.94H553Zm0-32.82v15.48H532.84V325.59Zm-42.19,0H531v15.48H510.81Zm0,17.35H531v15.47H510.81Zm0,32.82V360.29H531v15.47Zm22,0V360.29H553v15.47Zm22,0V360.29H575v15.47Zm42.2,0H576.91V360.29h20.16Zm0-17.35H576.91V342.94h20.16Zm0-17.34H576.91V325.59h20.16Z" style="fill:#c2c2c2;stroke:#263238;stroke-miterlimit:10"></path><rect x="552.01" y="246.18" width="4.98" height="126.34" transform="translate(863.85 -245.16) rotate(90)" style="fill:#c2c2c2;stroke:#263238;stroke-miterlimit:10"></rect><rect x="552.01" y="333.57" width="4.98" height="126.34" transform="translate(951.24 -157.77) rotate(90)" style="fill:#c2c2c2;stroke:#263238;stroke-miterlimit:10"></rect><rect x="487.91" y="286.01" width="4.98" height="117.9" style="fill:#c2c2c2;stroke:#263238;stroke-miterlimit:10"></rect><path d="M652.52,254.62a2.52,2.52,0,0,0-3.75-.43l-28.29,25.68c-2.08,1.94-4.22,4-5.36,6.57-1.62,3.7-.89,7.8-.87,11.7,0,4.42,0,8.84,0,13.26v92.51h5V294.56c0-2.46-.6-5.26.85-7.21,4.2-5.68,10.59-10,15.71-14.84.42-.4,3.5-3.27,16.33-14.56a2.52,2.52,0,0,0,.4-3.33Z" style="fill:#c2c2c2;stroke:#263238;stroke-miterlimit:10"></path><circle cx="649.77" cy="256.45" r="1.5" style="fill:#c2c2c2;stroke:#263238;stroke-miterlimit:10"></circle><rect x="484.07" y="403.15" width="12.67" height="4.31" style="fill:#c2c2c2;stroke:#263238;stroke-miterlimit:10"></rect><rect x="610.43" y="403.15" width="12.67" height="4.31" style="fill:#c2c2c2;stroke:#263238;stroke-miterlimit:10"></rect><circle cx="490.4" cy="414.05" r="6.77" style="fill:#263238;stroke:#263238;stroke-miterlimit:10"></circle><path d="M493.3,414.05a2.9,2.9,0,1,0-2.9,2.9A2.9,2.9,0,0,0,493.3,414.05Z" style="fill:#fff;stroke:#263238;stroke-miterlimit:10"></path><circle cx="616.58" cy="414.05" r="6.77" style="fill:#263238;stroke:#263238;stroke-miterlimit:10"></circle><path d="M619.48,414.05a2.9,2.9,0,1,0-2.9,2.9A2.9,2.9,0,0,0,619.48,414.05Z" style="fill:#fff;stroke:#263238;stroke-miterlimit:10"></path></g></svg>
