<svg xmlns="http://www.w3.org/2000/svg" viewBox="0 0 750 500"><g id="freepik--Plant--inject-2"><line x1="31.52" y1="253.7" x2="44.7" y2="380.01" style="fill:none;stroke:#263238;stroke-miterlimit:10;stroke-width:2px"></line><line x1="42.58" y1="355.84" x2="36.6" y2="349.53" style="fill:none;stroke:#263238;stroke-miterlimit:10;stroke-width:2px"></line><path d="M38.41,351.42A6.74,6.74,0,0,0,36,346.35c-1.54-1.37-9.61-4.77-10.38-1.92C24.83,347.52,33.09,353.59,38.41,351.42Z" style="fill:#032F4B;stroke:#263238;stroke-miterlimit:10"></path><line x1="38.41" y1="351.42" x2="30.73" y2="346.63" style="fill:none;stroke:#263238;stroke-miterlimit:10;stroke-width:0.5px"></line><line x1="44.07" y1="370.2" x2="38.1" y2="363.89" style="fill:none;stroke:#263238;stroke-miterlimit:10;stroke-width:2px"></line><path d="M39.91,365.78a6.71,6.71,0,0,0-2.37-5.06c-1.54-1.38-9.61-4.77-10.38-1.93C26.33,361.88,34.59,368,39.91,365.78Z" style="fill:#032F4B;stroke:#263238;stroke-miterlimit:10"></path><line x1="39.91" y1="365.78" x2="32.23" y2="360.99" style="fill:none;stroke:#263238;stroke-miterlimit:10;stroke-width:0.5px"></line><line x1="38.92" y1="320.79" x2="32.94" y2="314.47" style="fill:none;stroke:#263238;stroke-miterlimit:10;stroke-width:2px"></line><path d="M34.76,316.37a6.76,6.76,0,0,0-2.38-5.07c-1.54-1.37-9.61-4.77-10.37-1.93C21.17,312.47,29.44,318.54,34.76,316.37Z" style="fill:#032F4B;stroke:#263238;stroke-miterlimit:10"></path><line x1="34.76" y1="316.37" x2="27.07" y2="311.58" style="fill:none;stroke:#263238;stroke-miterlimit:10;stroke-width:0.5px"></line><line x1="40.42" y1="335.15" x2="34.44" y2="328.84" style="fill:none;stroke:#263238;stroke-miterlimit:10;stroke-width:2px"></line><path d="M36.26,330.73a6.77,6.77,0,0,0-2.38-5.07c-1.54-1.37-9.61-4.76-10.37-1.92C22.67,326.83,30.93,332.9,36.26,330.73Z" style="fill:#032F4B;stroke:#263238;stroke-miterlimit:10"></path><line x1="36.26" y1="330.73" x2="28.57" y2="325.94" style="fill:none;stroke:#263238;stroke-miterlimit:10;stroke-width:0.5px"></line><line x1="36.48" y1="297.45" x2="30.51" y2="291.14" style="fill:none;stroke:#263238;stroke-miterlimit:10;stroke-width:2px"></line><path d="M32.32,293A6.77,6.77,0,0,0,29.94,288c-1.53-1.37-9.6-4.76-10.37-1.92C18.74,289.13,27,295.2,32.32,293Z" style="fill:#032F4B;stroke:#263238;stroke-miterlimit:10"></path><line x1="32.32" y1="293.03" x2="24.64" y2="288.24" style="fill:none;stroke:#263238;stroke-miterlimit:10;stroke-width:0.5px"></line><line x1="34.04" y1="274.02" x2="28.06" y2="267.7" style="fill:none;stroke:#263238;stroke-miterlimit:10;stroke-width:2px"></line><path d="M29.88,269.59a6.75,6.75,0,0,0-2.38-5.06c-1.54-1.37-9.61-4.77-10.38-1.93C16.29,265.7,24.55,271.77,29.88,269.59Z" style="fill:#032F4B;stroke:#263238;stroke-miterlimit:10"></path><line x1="29.88" y1="269.59" x2="22.19" y2="264.81" style="fill:none;stroke:#263238;stroke-miterlimit:10;stroke-width:0.5px"></line><line x1="41.57" y1="347.34" x2="46.11" y2="339.93" style="fill:none;stroke:#263238;stroke-miterlimit:10;stroke-width:2px"></line><path d="M44.73,342.16A6.74,6.74,0,0,1,46,336.71c1.22-1.66,8.41-6.65,9.75-4C57.21,335.54,50.38,343.18,44.73,342.16Z" style="fill:#032F4B;stroke:#263238;stroke-miterlimit:10"></path><line x1="44.73" y1="342.16" x2="51.65" y2="335.54" style="fill:none;stroke:#263238;stroke-miterlimit:10;stroke-width:0.5px"></line><line x1="37.63" y1="309.54" x2="42.17" y2="302.13" style="fill:none;stroke:#263238;stroke-miterlimit:10;stroke-width:2px"></line><path d="M40.78,304.35a6.78,6.78,0,0,1,1.28-5.45c1.22-1.65,8.42-6.64,9.76-4C53.27,297.73,46.44,305.38,40.78,304.35Z" style="fill:#032F4B;stroke:#263238;stroke-miterlimit:10"></path><line x1="40.78" y1="304.35" x2="47.7" y2="297.74" style="fill:none;stroke:#263238;stroke-miterlimit:10;stroke-width:0.5px"></line><line x1="35.89" y1="292.93" x2="40.44" y2="285.52" style="fill:none;stroke:#263238;stroke-miterlimit:10;stroke-width:2px"></line><path d="M39.05,287.74a6.78,6.78,0,0,1,1.28-5.45c1.22-1.66,8.42-6.65,9.75-4C51.54,281.12,44.71,288.77,39.05,287.74Z" style="fill:#032F4B;stroke:#263238;stroke-miterlimit:10"></path><line x1="39.05" y1="287.74" x2="45.97" y2="281.13" style="fill:none;stroke:#263238;stroke-miterlimit:10;stroke-width:0.5px"></line><line x1="33.35" y1="268.57" x2="37.89" y2="261.16" style="fill:none;stroke:#263238;stroke-miterlimit:10;stroke-width:2px"></line><path d="M36.51,263.39a6.74,6.74,0,0,1,1.28-5.45c1.22-1.66,8.41-6.65,9.75-4C49,256.77,42.16,264.42,36.51,263.39Z" style="fill:#032F4B;stroke:#263238;stroke-miterlimit:10"></path><line x1="36.51" y1="263.39" x2="43.43" y2="256.77" style="fill:none;stroke:#263238;stroke-miterlimit:10;stroke-width:0.5px"></line><path d="M31.41,253a6.74,6.74,0,0,1,1.28-5.45c1.22-1.66,8.41-6.65,9.75-4C43.89,246.38,37.06,254,31.41,253Z" style="fill:#032F4B;stroke:#263238;stroke-miterlimit:10"></path><line x1="31.41" y1="253" x2="38.33" y2="246.39" style="fill:none;stroke:#263238;stroke-miterlimit:10;stroke-width:0.5px"></line><path d="M31.81,253.29a6.8,6.8,0,0,1-5.29-1.85c-1.52-1.38-5.73-9.06-3-10.12C26.53,240.18,33.42,247.77,31.81,253.29Z" style="fill:#032F4B;stroke:#263238;stroke-miterlimit:10"></path><line x1="31.81" y1="253.29" x2="25.96" y2="245.71" style="fill:none;stroke:#263238;stroke-miterlimit:10;stroke-width:0.5px"></line><line x1="66.29" y1="271.1" x2="53.18" y2="397.41" style="fill:none;stroke:#263238;stroke-miterlimit:10;stroke-width:2px"></line><line x1="56.08" y1="373.32" x2="51.53" y2="365.92" style="fill:none;stroke:#263238;stroke-miterlimit:10;stroke-width:2px"></line><path d="M52.91,368.14a6.74,6.74,0,0,0-1.28-5.45c-1.22-1.66-8.42-6.64-9.75-4C40.42,361.53,47.26,369.17,52.91,368.14Z" style="fill:#032F4B;stroke:#263238;stroke-miterlimit:10"></path><line x1="52.91" y1="368.14" x2="46.38" y2="361.87" style="fill:none;stroke:#263238;stroke-miterlimit:10;stroke-width:0.5px"></line><line x1="59.71" y1="338.27" x2="55.16" y2="330.86" style="fill:none;stroke:#263238;stroke-miterlimit:10;stroke-width:2px"></line><path d="M56.55,333.08a6.76,6.76,0,0,0-1.28-5.44c-1.22-1.66-8.42-6.65-9.76-4C44.06,326.47,50.9,334.12,56.55,333.08Z" style="fill:#032F4B;stroke:#263238;stroke-miterlimit:10"></path><line x1="56.55" y1="333.08" x2="50.02" y2="326.82" style="fill:none;stroke:#263238;stroke-miterlimit:10;stroke-width:0.5px"></line><line x1="58.22" y1="352.63" x2="53.67" y2="345.23" style="fill:none;stroke:#263238;stroke-miterlimit:10;stroke-width:2px"></line><path d="M55.06,347.45A6.78,6.78,0,0,0,53.78,342c-1.22-1.66-8.42-6.64-9.76-4C42.57,340.84,49.41,348.48,55.06,347.45Z" style="fill:#032F4B;stroke:#263238;stroke-miterlimit:10"></path><line x1="55.06" y1="347.45" x2="48.53" y2="341.18" style="fill:none;stroke:#263238;stroke-miterlimit:10;stroke-width:0.5px"></line><line x1="62.13" y1="314.93" x2="57.59" y2="307.52" style="fill:none;stroke:#263238;stroke-miterlimit:10;stroke-width:2px"></line><path d="M59,309.75a6.74,6.74,0,0,0-1.28-5.45c-1.22-1.66-8.42-6.64-9.75-4C46.48,303.14,53.32,310.78,59,309.75Z" style="fill:#032F4B;stroke:#263238;stroke-miterlimit:10"></path><line x1="58.97" y1="309.75" x2="52.44" y2="303.48" style="fill:none;stroke:#263238;stroke-miterlimit:10;stroke-width:0.5px"></line><line x1="64.57" y1="291.49" x2="60.02" y2="284.09" style="fill:none;stroke:#263238;stroke-miterlimit:10;stroke-width:2px"></line><path d="M61.41,286.31a6.77,6.77,0,0,0-1.29-5.45c-1.22-1.66-8.42-6.64-9.75-4C48.92,279.7,55.75,287.34,61.41,286.31Z" style="fill:#032F4B;stroke:#263238;stroke-miterlimit:10"></path><line x1="61.41" y1="286.31" x2="54.87" y2="280.04" style="fill:none;stroke:#263238;stroke-miterlimit:10;stroke-width:0.5px"></line><line x1="56.84" y1="364.8" x2="62.81" y2="358.48" style="fill:none;stroke:#263238;stroke-miterlimit:10;stroke-width:2px"></line><path d="M61,360.38a6.76,6.76,0,0,1,2.38-5.07c1.53-1.38,9.6-4.78,10.37-1.93C74.58,356.47,66.32,362.55,61,360.38Z" style="fill:#032F4B;stroke:#263238;stroke-miterlimit:10"></path><line x1="61" y1="360.38" x2="69.13" y2="355.33" style="fill:none;stroke:#263238;stroke-miterlimit:10;stroke-width:0.5px"></line><line x1="60.77" y1="326.99" x2="66.74" y2="320.68" style="fill:none;stroke:#263238;stroke-miterlimit:10;stroke-width:2px"></line><path d="M64.92,322.57a6.77,6.77,0,0,1,2.38-5.07c1.53-1.37,9.6-4.77,10.37-1.93C78.51,318.66,70.25,324.74,64.92,322.57Z" style="fill:#032F4B;stroke:#263238;stroke-miterlimit:10"></path><line x1="64.92" y1="322.57" x2="73.06" y2="317.52" style="fill:none;stroke:#263238;stroke-miterlimit:10;stroke-width:0.5px"></line><line x1="62.49" y1="310.38" x2="68.46" y2="304.07" style="fill:none;stroke:#263238;stroke-miterlimit:10;stroke-width:2px"></line><path d="M66.65,306A6.74,6.74,0,0,1,69,300.89c1.54-1.37,9.61-4.77,10.37-1.93C80.23,302.05,72,308.13,66.65,306Z" style="fill:#032F4B;stroke:#263238;stroke-miterlimit:10"></path><line x1="66.65" y1="305.96" x2="74.78" y2="300.91" style="fill:none;stroke:#263238;stroke-miterlimit:10;stroke-width:0.5px"></line><line x1="65.02" y1="286.03" x2="70.99" y2="279.71" style="fill:none;stroke:#263238;stroke-miterlimit:10;stroke-width:2px"></line><path d="M69.17,281.6a6.77,6.77,0,0,1,2.38-5.07c1.53-1.37,9.6-4.77,10.37-1.93C82.76,277.7,74.5,283.77,69.17,281.6Z" style="fill:#032F4B;stroke:#263238;stroke-miterlimit:10"></path><line x1="69.17" y1="281.6" x2="77.31" y2="276.56" style="fill:none;stroke:#263238;stroke-miterlimit:10;stroke-width:0.5px"></line><path d="M66.32,270.39a6.77,6.77,0,0,1,2.38-5.07c1.53-1.37,9.6-4.77,10.37-1.93C79.9,266.48,71.64,272.56,66.32,270.39Z" style="fill:#032F4B;stroke:#263238;stroke-miterlimit:10"></path><line x1="66.32" y1="270.39" x2="74.45" y2="265.34" style="fill:none;stroke:#263238;stroke-miterlimit:10;stroke-width:0.5px"></line><path d="M66.65,270.75a6.76,6.76,0,0,1-4.79-2.89c-1.2-1.67-3.74-10.05-.83-10.52C64.19,256.83,69.37,265.69,66.65,270.75Z" style="fill:#032F4B;stroke:#263238;stroke-miterlimit:10"></path><line x1="66.65" y1="270.75" x2="62.49" y2="262.13" style="fill:none;stroke:#263238;stroke-miterlimit:10;stroke-width:0.5px"></line><line x1="51.26" y1="219.66" x2="51.26" y2="379.4" style="fill:none;stroke:#263238;stroke-miterlimit:10;stroke-width:2px"></line><line x1="51.39" y1="355.38" x2="46.1" y2="348.48" style="fill:none;stroke:#263238;stroke-miterlimit:10;stroke-width:2px"></line><path d="M47.71,350.55a6.77,6.77,0,0,0-1.84-5.29c-1.38-1.52-9.06-5.74-10.11-3C34.61,345.26,42.19,352.16,47.71,350.55Z" style="fill:#032F4B;stroke:#263238;stroke-miterlimit:10"></path><line x1="47.71" y1="350.55" x2="40.57" y2="344.99" style="fill:none;stroke:#263238;stroke-miterlimit:10;stroke-width:0.5px"></line><line x1="51.39" y1="325.36" x2="46.1" y2="318.46" style="fill:none;stroke:#263238;stroke-miterlimit:10;stroke-width:2px"></line><path d="M47.71,320.53a6.77,6.77,0,0,0-1.84-5.29c-1.38-1.52-9.06-5.73-10.11-3C34.61,315.24,42.19,322.14,47.71,320.53Z" style="fill:#032F4B;stroke:#263238;stroke-miterlimit:10"></path><line x1="47.71" y1="320.53" x2="40.57" y2="314.97" style="fill:none;stroke:#263238;stroke-miterlimit:10;stroke-width:0.5px"></line><line x1="51.39" y1="290.12" x2="46.1" y2="283.22" style="fill:none;stroke:#263238;stroke-miterlimit:10;stroke-width:2px"></line><path d="M47.71,285.29A6.77,6.77,0,0,0,45.87,280c-1.38-1.52-9.06-5.74-10.11-3C34.61,280,42.19,286.9,47.71,285.29Z" style="fill:#032F4B;stroke:#263238;stroke-miterlimit:10"></path><line x1="47.71" y1="285.29" x2="40.57" y2="279.73" style="fill:none;stroke:#263238;stroke-miterlimit:10;stroke-width:0.5px"></line><line x1="51.39" y1="266.66" x2="46.1" y2="259.76" style="fill:none;stroke:#263238;stroke-miterlimit:10;stroke-width:2px"></line><path d="M47.71,261.83a6.77,6.77,0,0,0-1.84-5.29c-1.38-1.52-9.06-5.74-10.11-3C34.61,256.54,42.19,263.44,47.71,261.83Z" style="fill:#032F4B;stroke:#263238;stroke-miterlimit:10"></path><line x1="47.71" y1="261.83" x2="40.57" y2="256.27" style="fill:none;stroke:#263238;stroke-miterlimit:10;stroke-width:0.5px"></line><line x1="51.39" y1="243.09" x2="46.1" y2="236.19" style="fill:none;stroke:#263238;stroke-miterlimit:10;stroke-width:2px"></line><path d="M47.71,238.26A6.74,6.74,0,0,0,45.87,233c-1.38-1.53-9.06-5.74-10.11-3C34.61,233,42.19,239.87,47.71,238.26Z" style="fill:#032F4B;stroke:#263238;stroke-miterlimit:10"></path><line x1="47.71" y1="238.26" x2="40.57" y2="232.7" style="fill:none;stroke:#263238;stroke-miterlimit:10;stroke-width:0.5px"></line><line x1="51.28" y1="364.55" x2="56.56" y2="357.65" style="fill:none;stroke:#263238;stroke-miterlimit:10;stroke-width:2px"></line><path d="M55,359.72a6.77,6.77,0,0,1,1.84-5.29c1.39-1.52,9.06-5.74,10.12-3C68.06,354.43,60.47,361.33,55,359.72Z" style="fill:#032F4B;stroke:#263238;stroke-miterlimit:10"></path><line x1="54.95" y1="359.72" x2="62.52" y2="353.86" style="fill:none;stroke:#263238;stroke-miterlimit:10;stroke-width:0.5px"></line><line x1="51.28" y1="316.8" x2="56.56" y2="309.91" style="fill:none;stroke:#263238;stroke-miterlimit:10;stroke-width:2px"></line><path d="M55,312a6.75,6.75,0,0,1,1.84-5.28c1.39-1.53,9.06-5.74,10.12-3C68.06,306.69,60.47,313.58,55,312Z" style="fill:#032F4B;stroke:#263238;stroke-miterlimit:10"></path><line x1="54.95" y1="311.97" x2="62.52" y2="306.11" style="fill:none;stroke:#263238;stroke-miterlimit:10;stroke-width:0.5px"></line><line x1="51.28" y1="293.24" x2="56.56" y2="286.34" style="fill:none;stroke:#263238;stroke-miterlimit:10;stroke-width:2px"></line><path d="M55,288.41a6.77,6.77,0,0,1,1.84-5.29c1.39-1.52,9.06-5.73,10.12-3C68.06,283.12,60.47,290,55,288.41Z" style="fill:#032F4B;stroke:#263238;stroke-miterlimit:10"></path><line x1="54.95" y1="288.41" x2="62.52" y2="282.55" style="fill:none;stroke:#263238;stroke-miterlimit:10;stroke-width:0.5px"></line><line x1="51.28" y1="262.09" x2="56.56" y2="255.2" style="fill:none;stroke:#263238;stroke-miterlimit:10;stroke-width:2px"></line><path d="M55,257.27A6.77,6.77,0,0,1,56.79,252c1.39-1.52,9.06-5.74,10.12-3C68.06,252,60.47,258.88,55,257.27Z" style="fill:#032F4B;stroke:#263238;stroke-miterlimit:10"></path><line x1="54.95" y1="257.27" x2="62.52" y2="251.41" style="fill:none;stroke:#263238;stroke-miterlimit:10;stroke-width:0.5px"></line><line x1="51.28" y1="237.61" x2="56.56" y2="230.71" style="fill:none;stroke:#263238;stroke-miterlimit:10;stroke-width:2px"></line><path d="M55,232.78a6.77,6.77,0,0,1,1.84-5.29c1.39-1.52,9.06-5.74,10.12-3C68.06,227.49,60.47,234.39,55,232.78Z" style="fill:#032F4B;stroke:#263238;stroke-miterlimit:10"></path><line x1="54.95" y1="232.78" x2="62.52" y2="226.92" style="fill:none;stroke:#263238;stroke-miterlimit:10;stroke-width:0.5px"></line><path d="M51,221.92a6.77,6.77,0,0,1,1.84-5.29c1.38-1.52,9.06-5.74,10.11-3C64.06,216.63,56.48,223.53,51,221.92Z" style="fill:#032F4B;stroke:#263238;stroke-miterlimit:10"></path><line x1="50.96" y1="221.92" x2="58.53" y2="216.06" style="fill:none;stroke:#263238;stroke-miterlimit:10;stroke-width:0.5px"></line><path d="M51.33,222.25a6.81,6.81,0,0,1-5.07-2.39c-1.37-1.53-4.75-9.61-1.91-10.37C47.44,208.66,53.51,216.93,51.33,222.25Z" style="fill:#032F4B;stroke:#263238;stroke-miterlimit:10"></path><line x1="51.33" y1="222.25" x2="46.29" y2="214.1" style="fill:none;stroke:#263238;stroke-miterlimit:10;stroke-width:0.5px"></line><polygon points="57.84 420.82 40.92 420.82 38.8 378.1 59.95 378.1 57.84 420.82" style="fill:#263238;stroke:#263238;stroke-miterlimit:10"></polygon></g><g id="freepik--washing-machine-2--inject-2"><rect x="270.92" y="122.15" width="164.82" height="298.68" style="fill:#fff;stroke:#263238;stroke-miterlimit:10"></rect><rect x="328.6" y="122.15" width="49.47" height="298.68" style="fill:#032F4B;stroke:#263238;stroke-miterlimit:10"></rect><rect x="270.92" y="145.36" width="164.82" height="199.2" style="fill:none;stroke:#263238;stroke-miterlimit:10"></rect><rect x="270.92" y="122.15" width="164.82" height="199.2" style="fill:none;stroke:#263238;stroke-miterlimit:10"></rect><rect x="406.32" y="194.65" width="29.42" height="16.2" style="fill:#fff;stroke:#263238;stroke-miterlimit:10"></rect><rect x="406.32" y="265.43" width="29.42" height="16.2" style="fill:#fff;stroke:#263238;stroke-miterlimit:10"></rect><circle cx="353.33" cy="238.95" r="73.9" style="fill:#fff;stroke:#263238;stroke-miterlimit:10"></circle><circle cx="353.33" cy="238.95" r="71.47" transform="translate(-65.48 319.83) rotate(-45)" style="fill:#032F4B;stroke:#263238;stroke-miterlimit:10"></circle><path d="M412.74,239a59.45,59.45,0,1,1-17.91-42.49h0A59.22,59.22,0,0,1,412.74,239Z" style="fill:#263238;stroke:#263238;stroke-miterlimit:10"></path><path d="M412.74,239a59.42,59.42,0,0,1-91.46,50l0-.2c-5.13-2.56-13.69-14.1-18.39-23.08s2.14-36.35,12-46.18,10.69-14.54,16.67-12,.87,15.83.87,15.83A125,125,0,0,0,341,209.68c3-6,12.39-8.55,18.81-12.4s13.68-6.41,18.39-6.41c4,0,13.71,4.26,16.66,5.59h0A59.22,59.22,0,0,1,412.74,239Z" style="fill:#fff;stroke:#263238;stroke-miterlimit:10"></path><path d="M327.26,239.58c5-15.6,3.44-9.8,3.44-9.8" style="fill:none;stroke:#263238;stroke-miterlimit:10"></path><path d="M316.17,252s7.26-39.33,9-28.64-11.54,39.76-9.83,44.46,5-6.37,10.75-24.49" style="fill:none;stroke:#263238;stroke-miterlimit:10"></path><path d="M406,260.11a38.29,38.29,0,0,0,2.12-9" style="fill:none;stroke:#263238;stroke-miterlimit:10"></path><path d="M359.78,288.36c13.56,9.39,35.32-5.26,44.35-23.93" style="fill:none;stroke:#263238;stroke-miterlimit:10"></path><path d="M370.89,248.09a38.11,38.11,0,0,0-13.68,4.78c-13.74,8.64-14.14,21.6-1.2,32.6" style="fill:none;stroke:#263238;stroke-miterlimit:10"></path><path d="M340.76,269.57c3.19-7.59,9.35-20.7,16.88-29.1,11.12-12.4,38.91-18,38.48-3.85-.26,8.56-9,9.25-19.2,10.57" style="fill:none;stroke:#263238;stroke-miterlimit:10"></path><path d="M338.4,275.53s.42-1.16,1.19-3.11" style="fill:none;stroke:#263238;stroke-miterlimit:10"></path><path d="M329.29,262c-5.73,10.07-10.37,15.2-17,15.2" style="fill:none;stroke:#263238;stroke-miterlimit:10"></path><path d="M347.38,227.25q-1.83,3.3-3.85,7.23c-4.59,8.92-8.29,16.47-11.55,22.63" style="fill:none;stroke:#263238;stroke-miterlimit:10"></path><path d="M397.57,219.16c-3-4.51-10.32-13.64-20.26-14.61-11.42-1.1-17.45,1-28.2,19.62" style="fill:none;stroke:#263238;stroke-miterlimit:10"></path><path d="M399.12,221.66s-.3-.56-.88-1.47" style="fill:none;stroke:#263238;stroke-miterlimit:10"></path><path d="M390.56,256.72s-3.56,1.85-8,4.36c-6.21,3.51-14.12,8.29-16.37,11-3.85,4.7,3.85,9.41,7.27,5.56s9.84-11.12,9.84-11.12" style="fill:none;stroke:#263238;stroke-miterlimit:10"></path><path d="M295.81,261.38a7.51,7.51,0,0,1-7.26-5.62,67.32,67.32,0,0,1,1.19-37.68A7.5,7.5,0,0,1,304,222.76a52.1,52.1,0,0,0-.92,29.24,7.51,7.51,0,0,1-5.39,9.14A7.63,7.63,0,0,1,295.81,261.38Z" style="fill:#bdbdbd;stroke:#263238;stroke-miterlimit:10"></path><circle cx="368.17" cy="152.47" r="4.52" style="fill:#263238;stroke:#263238;stroke-miterlimit:10"></circle><circle cx="422.43" cy="133.88" r="4.52" style="fill:#032F4B;stroke:#263238;stroke-miterlimit:10"></circle><rect x="333.84" y="148.51" width="26.15" height="8.29" style="fill:#fff;stroke:#263238;stroke-miterlimit:10"></rect><line x1="411.03" y1="122.32" x2="411.03" y2="145.53" style="fill:none;stroke:#263238;stroke-miterlimit:10"></line></g><g id="freepik--washing-machine-1--inject-2"><rect x="92.34" y="122.15" width="164.82" height="298.68" style="fill:#fff;stroke:#263238;stroke-miterlimit:10"></rect><rect x="150.01" y="122.15" width="49.47" height="298.68" style="fill:#032F4B;stroke:#263238;stroke-miterlimit:10"></rect><rect x="92.34" y="145.36" width="164.82" height="199.2" style="fill:none;stroke:#263238;stroke-miterlimit:10"></rect><rect x="92.34" y="122.15" width="164.82" height="199.2" style="fill:none;stroke:#263238;stroke-miterlimit:10"></rect><rect x="227.73" y="194.65" width="29.42" height="16.2" style="fill:#fff;stroke:#263238;stroke-miterlimit:10"></rect><rect x="227.73" y="265.43" width="29.42" height="16.2" style="fill:#fff;stroke:#263238;stroke-miterlimit:10"></rect><circle cx="174.75" cy="238.95" r="73.9" style="fill:#fff;stroke:#263238;stroke-miterlimit:10"></circle><circle cx="174.75" cy="238.95" r="71.47" transform="translate(-50.82 47.24) rotate(-13.46)" style="fill:#032F4B;stroke:#263238;stroke-miterlimit:10"></circle><path d="M234.15,239a59.45,59.45,0,1,1-17.91-42.49h0A59.18,59.18,0,0,1,234.15,239Z" style="fill:#263238;stroke:#263238;stroke-miterlimit:10"></path><path d="M117.22,261.38a7.5,7.5,0,0,1-7.25-5.62,67.32,67.32,0,0,1,1.19-37.68,7.5,7.5,0,0,1,14.26,4.68A51.75,51.75,0,0,0,122.84,239,52.39,52.39,0,0,0,124.49,252a7.5,7.5,0,0,1-5.38,9.14A7.65,7.65,0,0,1,117.22,261.38Z" style="fill:#bdbdbd;stroke:#263238;stroke-miterlimit:10"></path><line x1="150.9" y1="262.4" x2="143.44" y2="269.87" style="fill:none;stroke:#fff;stroke-miterlimit:10"></line><line x1="211.53" y1="201.78" x2="154.79" y2="258.52" style="fill:none;stroke:#fff;stroke-miterlimit:10"></line><line x1="159.56" y1="244.18" x2="139.56" y2="264.19" style="fill:none;stroke:#fff;stroke-miterlimit:10"></line><line x1="222.28" y1="229.25" x2="211.83" y2="239.7" style="fill:none;stroke:#fff;stroke-miterlimit:10"></line><circle cx="189.59" cy="152.47" r="4.52" style="fill:#263238;stroke:#263238;stroke-miterlimit:10"></circle><path d="M248.37,133.88a4.52,4.52,0,1,0-4.52,4.52A4.52,4.52,0,0,0,248.37,133.88Z" style="fill:#032F4B;stroke:#263238;stroke-miterlimit:10"></path><rect x="155.25" y="148.51" width="26.15" height="8.29" style="fill:#fff;stroke:#263238;stroke-miterlimit:10"></rect><line x1="232.44" y1="122.32" x2="232.44" y2="145.53" style="fill:none;stroke:#263238;stroke-miterlimit:10"></line></g><g id="freepik--Character--inject-2"><path d="M408.65,195.69s-2.22-3.34-9.54-13.22S387.49,166.82,386.18,164s-3.57-8.87-5.53-12-2.73-2.95-4.43-4.87a9.9,9.9,0,0,0-6.74-3.3c-2.19,0-4.51.81-3.72,2.23s4,.35,4.91.6a18.05,18.05,0,0,1,4.41,3.32c.66.77.58,7.35.2,7.48s-6.47-1.62-8.41-1.47-3.73,1.71-2.82,2.21,3.75.36,6.73,1.5,6.1,3.82,7.91,4.45l1.81.63s9.9,25,12.92,30.87,11.73,13.84,13.28,13.83,4.5-2.36,4.5-2.36Z" style="fill:#fff;stroke:#263238;stroke-miterlimit:10"></path><path d="M443.16,186a16.72,16.72,0,0,0-5.4,2.11c-2.83,1.71-29.64,6.3-29.64,6.3l3.2,20.25,24-3.31,9.88-24.85S445.35,185.33,443.16,186Z" style="fill:#032F4B;stroke:#263238;stroke-miterlimit:10"></path><path d="M442.4,129.65s-5.6,9.43-5.6,12.38-.45,6.49-1.48,8-5,4-4.86,4.72.73,2.51,1.91,3.1l1.18.59s2.36,7.81,3.25,10,1.62,2.66,2.5,2.66,5.9-.74,5.9-.74a37,37,0,0,1,.74,8,19.2,19.2,0,0,1-.59,5l16.22-8s-1.48-4.71-1-8.11,3.4-4.42-2.5-19.16S444.17,125.81,442.4,129.65Z" style="fill:#fff;stroke:#263238;stroke-miterlimit:10"></path><path d="M438.55,149c-.21,1-.64,1.75-1,1.68s-.4-.93-.19-1.93.64-1.74,1-1.67S438.77,148,438.55,149Z" style="fill:#263238"></path><path d="M437.53,143.8s1.77-1.47,2.36,1" style="fill:none;stroke:#263238;stroke-linecap:round;stroke-linejoin:round"></path><path d="M435.76,160.9a5.45,5.45,0,0,0,4.72-2.65" style="fill:none;stroke:#263238;stroke-linecap:round;stroke-linejoin:round"></path><path d="M440.34,125.37a184.79,184.79,0,0,0,5,18.43c2.65,7.52,9.43,19,12.09,21.82s3.68,4.43,5,4.28,12.39-9.88,14.45-20.05-.59-17.55-7.81-21.82S439.75,119.33,440.34,125.37Z" style="fill:#263238;stroke:#263238;stroke-miterlimit:10"></path><path d="M462.45,169.9s-1,8.84,2.51,12.53,6,4.28,10.17,1.47,7.37-9.43,2.06-13.41S463.34,165.62,462.45,169.9Z" style="fill:#263238;stroke:#263238;stroke-miterlimit:10"></path><path d="M447,152.21s1.62-5,3.54-3.1,1.92,8,.29,10.47-2.5,0-2.5,0" style="fill:#fff;stroke:#263238;stroke-miterlimit:10"></path><path d="M434.61,320.84s-1.18,17.71,1.38,26.57,18.69,51,18.69,51,.4,7.47-.19,8.26-3.35,5.12-7.09,6.89-11.61,6.3-9.84,6.89,17.52-1.19,19.29-.4,9.64-2.36,11.61-3.15,0-5.7,0-5.7a247.64,247.64,0,0,1-5.9-24.8c-1.78-10.82-4.53-25.78-6.1-33.25a62.2,62.2,0,0,0-4.53-13.39l2-18.49Z" style="fill:#fff;stroke:#263238;stroke-miterlimit:10"></path><path d="M450,416.09l-2-2.84-.54.28c-3.74,1.77-11.61,6.3-9.84,6.89s17.52-1.19,19.29-.4,9.64-2.36,11.61-3.15,0-5.7,0-5.7-.2-.67-.52-1.81a34.91,34.91,0,0,0-7.55,4.56C456.26,417.46,450,416.09,450,416.09Z" style="fill:#263238;stroke:#263238;stroke-miterlimit:10"></path><path d="M441.3,322.22s1.58,18.11,3.94,24.4,2.36,49.2,2.36,52.74-5.71,9.25-5.71,9.25-9.84,7.28-12.59,8.07-4.92,1.77-3.54,2.95,14.95,1.18,19.68,1.18,10.82.2,11.41-.79a15.71,15.71,0,0,0,1-3.93s-1.18-11-.78-15.94,7.47-34.83,6.88-44.87a94,94,0,0,0-3.54-19.68c-.2-.78,1.38-14.36,1.38-14.36Z" style="fill:#fff;stroke:#263238;stroke-miterlimit:10"></path><path d="M457.83,416.09s-.05-.48-.12-1.27c-8.85.69-20.34,1.27-20.34,1.27L436,412.75c-2.64,1.79-5.45,3.56-6.73,3.93-2.76.78-4.92,1.77-3.54,2.95s14.95,1.18,19.68,1.18,10.82.2,11.41-.79A15.71,15.71,0,0,0,457.83,416.09Z" style="fill:#263238;stroke:#263238;stroke-miterlimit:10"></path><path d="M433.29,243.84s-6.35,16-6.75,40.6,1,37,1,37,10,5.12,25,4.53,19.68-3.15,19.68-3.15,4.4-25.19,3.62-42.7-3-21.06-5-26-6-12.22-6-12.22S451.25,247.52,433.29,243.84Z" style="fill:#032F4B;stroke:#263238;stroke-miterlimit:10"></path><path d="M455.27,315.14l-2.44-70.47a61.68,61.68,0,0,1-19.54-.83s-6.35,16-6.75,40.6c-.2,12.82.07,22.31.39,28.48C442.52,318.32,455.27,315.14,455.27,315.14Z" style="fill:#fff;stroke:#263238;stroke-miterlimit:10"></path><path d="M461.3,173.1s-15.23,7-17.55,10.07a14,14,0,0,0-2.46,7.1s-13.68,18.59-12.78,23.63,4.13,22.2,4.13,22.2l.39,2.71.26,3.23v1.8a33.88,33.88,0,0,0,16,3.23c9.68-.26,15.23-3.36,15.49-5.16a15,15,0,0,0-.91-6.46c-.64-1.42,3.62-23.36,3.88-33s-3.1-24.92-4.78-27.11Z" style="fill:#032F4B;stroke:#263238;stroke-miterlimit:10"></path><path d="M463,175.3l-1.68-2.2s-15.23,7-17.55,10.07a14,14,0,0,0-2.46,7.1s12.9-10.59,22.3-13.79A5.9,5.9,0,0,0,463,175.3Z" style="fill:#fff;stroke:#263238;stroke-miterlimit:10"></path><path d="M449.76,221.88l1,16.13s-4.26,41.05-4.26,42.21.39,13.69,1.29,15.62a11.28,11.28,0,0,0,4.78,4.26,4.17,4.17,0,0,0,3.22-1.81c.78-1.42.26-1.29-.51-1.29h-.78l-1.8-1.16a12.92,12.92,0,0,0,1.67-4.77c.13-2.2-2.32-8.4-2.71-9.17s7.88-32.4,9.17-38.85a64.35,64.35,0,0,0,1.29-11.36l.52-11.11Z" style="fill:#fff;stroke:#263238;stroke-miterlimit:10"></path><path d="M450.2,190s-2.84.91-3.1,6.72-.9,31.36-.9,31.36,1.55.91,10.07-.12,9.55-1.42,9.55-1.42,1.68-30.73-.52-36.54-6.58-7.22-6.58-7.22" style="fill:#032F4B;stroke:#263238;stroke-miterlimit:10"></path></g></svg>
